<svg width="512" height="512" viewBox="0 0 512 512" fill="none" xmlns="http://www.w3.org/2000/svg">
  <rect width="512" height="512" rx="112" fill="#1DA1F2"/>
  <rect x="98" y="98" width="316" height="316" rx="46" fill="white"/>
  <rect x="160" y="186" width="192" height="18" rx="9" fill="#1DA1F2"/>
  <rect x="160" y="240" width="164" height="18" rx="9" fill="#1DA1F2"/>
  <rect x="160" y="294" width="134" height="18" rx="9" fill="#1DA1F2"/>
  <path d="M341.5 312C331 312 321.6 316.9 316 324.5C310.4 316.9 301 312 290.5 312C273.1 312 259 326.1 259 343.5C259 385.3 316 416 316 416C316 416 373 385.3 373 343.5C373 326.1 358.9 312 341.5 312Z" fill="#E0245E"/>
</svg>
